# This file uses centimeters as units for non-parametric coordinates.

mtllib genericBolt.mtl
g default
v -0.382683 0.255691 0.923880
v 0.382683 0.255691 0.923880
v 0.923880 0.255691 0.382683
v 0.923880 0.255691 -0.382683
v 0.382683 0.255691 -0.923880
v -0.382684 0.255691 -0.923879
v -0.923880 0.255691 -0.382683
v -0.923879 0.255691 0.382684
v -0.000000 0.255691 0.000000
v 0.000000 0.255691 0.923880
v -0.191342 0.255691 0.461940
v 0.191342 0.255691 0.461940
v 0.653282 0.255691 0.653281
v 0.461940 0.255691 0.191342
v 0.923880 0.255691 -0.000000
v 0.461940 0.255691 -0.191342
v 0.653281 0.255691 -0.653282
v 0.191342 0.255691 -0.461940
v -0.000000 0.255691 -0.923880
v -0.191342 0.255691 -0.461940
v -0.653282 0.255691 -0.653281
v -0.461940 0.255691 -0.191342
v -0.923880 0.255691 0.000000
v -0.461940 0.255691 0.191342
v -0.653281 0.255691 0.653282
v -0.382683 -0.025658 0.923880
v 0.382683 -0.025658 0.923880
v 0.923880 -0.025658 0.382683
v 0.923880 -0.025658 -0.382683
v 0.382683 -0.025658 -0.923880
v -0.382684 -0.025658 -0.923879
v -0.923880 -0.025658 -0.382683
v -0.923879 -0.025658 0.382684
v 0.000000 -0.025658 0.923880
v -0.191342 -0.025658 0.461940
v 0.191342 -0.025658 0.461940
v 0.653282 -0.025658 0.653281
v 0.461940 -0.025658 0.191342
v 0.923880 -0.025658 -0.000000
v 0.461940 -0.025658 -0.191342
v 0.653281 -0.025658 -0.653282
v 0.191342 -0.025658 -0.461940
v -0.000000 -0.025658 -0.923880
v -0.191342 -0.025658 -0.461940
v -0.653282 -0.025658 -0.653281
v -0.461940 -0.025658 -0.191342
v -0.923880 -0.025658 0.000000
v -0.461940 -0.025658 0.191342
v -0.653281 -0.025658 0.653282
v -0.000000 -1.071309 0.000000
v -0.191342 -1.071309 0.461940
v 0.191342 -1.071309 0.461940
v 0.461940 -1.071309 0.191342
v 0.461940 -1.071309 -0.191342
v 0.191342 -1.071309 -0.461940
v -0.191342 -1.071309 -0.461940
v -0.461940 -1.071309 -0.191342
v -0.461940 -1.071309 0.191342
vt 0.292893 0.000000
vt 0.707107 0.000000
vt 1.000000 0.292893
vt 1.000000 0.707107
vt 0.707107 1.000000
vt 0.292893 1.000000
vt 0.000000 0.707107
vt 0.000000 0.292893
vt 0.500000 0.500000
vt 0.500000 0.000000
vt 0.396447 0.250000
vt 0.603553 0.250000
vt 0.853553 0.146447
vt 0.750000 0.396447
vt 1.000000 0.500000
vt 0.750000 0.603553
vt 0.853553 0.853553
vt 0.603553 0.750000
vt 0.500000 1.000000
vt 0.396447 0.750000
vt 0.146447 0.853553
vt 0.250000 0.603553
vt 0.000000 0.500000
vt 0.250000 0.396446
vt 0.146447 0.146446
vt 0.292893 0.000000
vt 0.500000 0.000000
vt 0.396447 0.250000
vt 0.707107 0.000000
vt 0.603553 0.250000
vt 0.500000 0.500000
vt 0.853553 0.146447
vt 1.000000 0.292893
vt 0.750000 0.396447
vt 1.000000 0.500000
vt 1.000000 0.707107
vt 0.750000 0.603553
vt 0.853553 0.853553
vt 0.707107 1.000000
vt 0.603553 0.750000
vt 0.500000 1.000000
vt 0.292893 1.000000
vt 0.396447 0.750000
vt 0.146447 0.853553
vt 0.000000 0.707107
vt 0.250000 0.603553
vt 0.000000 0.500000
vt 0.000000 0.292893
vt 0.250000 0.396446
vt 0.146447 0.146446
vt 0.603553 0.250000
vt 0.396447 0.250000
vt 0.750000 0.396447
vt 0.750000 0.603553
vt 0.603553 0.750000
vt 0.396447 0.750000
vt 0.250000 0.603553
vt 0.250000 0.396446
vn 0.000000 1.000000 -0.000000
vn -0.000000 1.000000 -0.000000
vn 0.000000 1.000000 0.000000
vn -0.000000 1.000000 -0.000000
vn 0.000000 1.000000 0.000000
vn 0.000000 1.000000 0.000000
vn -0.000000 1.000000 -0.000000
vn -0.000000 1.000000 -0.000000
vn 0.000000 1.000000 -0.000000
vn -0.000000 1.000000 0.000000
vn -0.000000 1.000000 0.000000
vn 0.000000 1.000000 0.000000
vn 0.000000 1.000000 -0.000000
vn 0.000000 1.000000 -0.000000
vn 0.000000 1.000000 0.000000
vn 0.000000 1.000000 -0.000000
vn 0.000000 1.000000 -0.000000
vn 0.000000 1.000000 -0.000000
vn 0.000000 1.000000 0.000000
vn 0.000000 1.000000 0.000000
vn 0.000000 1.000000 0.000000
vn 0.000000 1.000000 0.000000
vn 0.000000 1.000000 0.000000
vn 0.000000 1.000000 0.000000
vn 0.000000 1.000000 -0.000000
vn 0.000000 -1.000000 -0.000000
vn 0.000000 -1.000000 0.000000
vn -0.000000 -1.000000 -0.000000
vn -0.000000 -1.000000 -0.000000
vn -0.000000 -1.000000 -0.000000
vn 0.000000 -1.000000 0.000001
vn 0.000000 -1.000000 0.000000
vn 0.000000 -1.000000 0.000000
vn -0.000000 -1.000000 -0.000000
vn -0.000000 -1.000000 -0.000000
vn -0.000000 -1.000000 -0.000000
vn 0.000000 -1.000000 0.000000
vn -0.000000 -1.000000 0.000000
vn 0.000000 -1.000000 0.000000
vn -0.000000 -1.000000 0.000000
vn 0.000000 -1.000000 0.000000
vn 0.000000 -1.000000 -0.000000
vn 0.000000 -1.000000 0.000000
vn 0.000000 -1.000000 0.000000
vn 0.000000 -1.000000 0.000000
vn 0.000000 -1.000000 0.000000
vn 0.000000 -1.000000 0.000000
vn 0.000000 -1.000000 -0.000000
vn 0.000000 -1.000000 -0.000000
vn 0.000000 -1.000000 -0.000000
vn 0.000000 -1.000000 0.000000
vn 0.000000 -1.000000 0.000000
vn 0.000000 -1.000000 -0.000000
vn 0.000000 -1.000000 0.000000
vn 0.000000 -1.000000 0.000000
vn 0.000000 -1.000000 -0.000000
vn 0.000000 -1.000000 0.000000
vn 0.000000 -1.000000 -0.000000
vn -0.000000 0.000000 -1.000000
vn -0.000000 0.000000 -1.000000
vn -0.000000 0.000000 -1.000000
vn -0.000000 0.000000 -1.000000
vn 0.707107 0.000000 -0.707107
vn 0.707107 0.000000 -0.707107
vn 0.707107 0.000000 -0.707107
vn 0.707107 0.000000 -0.707107
vn 0.707107 0.000000 -0.707107
vn 0.707107 0.000000 -0.707107
vn 0.707107 0.000000 -0.707107
vn 0.707107 0.000000 -0.707107
vn 1.000000 0.000000 0.000000
vn 1.000000 0.000000 0.000000
vn 1.000000 0.000000 0.000000
vn 1.000000 0.000000 0.000000
vn 1.000000 0.000000 -0.000000
vn 1.000000 0.000000 -0.000000
vn 1.000000 0.000000 -0.000000
vn 1.000000 0.000000 -0.000000
vn 0.707107 0.000000 0.707107
vn 0.707107 0.000000 0.707107
vn 0.707107 0.000000 0.707107
vn 0.707107 0.000000 0.707107
vn 0.707107 0.000000 0.707107
vn 0.707107 0.000000 0.707107
vn 0.707107 0.000000 0.707107
vn 0.707107 0.000000 0.707107
vn -0.000000 0.000000 1.000000
vn -0.000000 0.000000 1.000000
vn -0.000000 0.000000 1.000000
vn -0.000000 0.000000 1.000000
vn 0.000001 0.000000 1.000000
vn 0.000001 0.000000 1.000000
vn 0.000001 0.000000 1.000000
vn 0.000001 0.000000 1.000000
vn -0.707107 0.000000 0.707107
vn -0.707107 0.000000 0.707107
vn -0.707107 0.000000 0.707107
vn -0.707107 0.000000 0.707107
vn -0.707107 0.000000 0.707107
vn -0.707107 0.000000 0.707107
vn -0.707107 0.000000 0.707107
vn -0.707107 0.000000 0.707107
vn -1.000000 0.000000 0.000000
vn -1.000000 0.000000 0.000000
vn -1.000000 0.000000 0.000000
vn -1.000000 0.000000 0.000000
vn -1.000000 0.000000 0.000000
vn -1.000000 0.000000 0.000000
vn -1.000000 0.000000 0.000000
vn -1.000000 0.000000 0.000000
vn -0.707107 0.000000 -0.707107
vn -0.707107 0.000000 -0.707107
vn -0.707107 0.000000 -0.707107
vn -0.707107 0.000000 -0.707107
vn -0.707107 0.000000 -0.707107
vn -0.707107 0.000000 -0.707107
vn -0.707107 0.000000 -0.707107
vn -0.707107 0.000000 -0.707107
vn 0.000000 0.000000 -1.000000
vn 0.000000 0.000000 -1.000000
vn 0.000000 0.000000 -1.000000
vn 0.000000 0.000000 -1.000000
vn 0.000000 0.000000 1.000000
vn 0.000000 0.000000 1.000000
vn 0.000000 0.000000 1.000000
vn 0.000000 0.000000 1.000000
vn 0.707107 0.000000 0.707107
vn 0.707107 0.000000 0.707107
vn 0.707107 0.000000 0.707107
vn 0.707107 0.000000 0.707107
vn 1.000000 0.000000 -0.000000
vn 1.000000 0.000000 -0.000000
vn 1.000000 0.000000 -0.000000
vn 1.000000 0.000000 -0.000000
vn 0.707107 0.000000 -0.707107
vn 0.707107 0.000000 -0.707107
vn 0.707107 0.000000 -0.707107
vn 0.707107 0.000000 -0.707107
vn -0.000000 0.000000 -1.000000
vn -0.000000 0.000000 -1.000000
vn -0.000000 0.000000 -1.000000
vn -0.000000 0.000000 -1.000000
vn -0.707107 0.000000 -0.707107
vn -0.707107 0.000000 -0.707107
vn -0.707107 0.000000 -0.707107
vn -0.707107 0.000000 -0.707107
vn -1.000000 0.000000 0.000000
vn -1.000000 0.000000 0.000000
vn -1.000000 0.000000 0.000000
vn -1.000000 0.000000 0.000000
vn -0.707107 0.000000 0.707107
vn -0.707107 0.000000 0.707107
vn -0.707107 0.000000 0.707107
vn -0.707107 0.000000 0.707107
s 1
f 1/1/1 10/10/2 11/11/3
f 10/10/2 2/2/4 12/12/5
f 10/10/2 12/12/5 11/11/3
f 11/11/3 12/12/5 9/9/6
f 2/2/4 13/13/7 12/12/5
f 13/13/7 3/3/8 14/14/9
f 13/13/7 14/14/9 12/12/5
f 12/12/5 14/14/9 9/9/6
f 3/3/8 15/15/10 14/14/9
f 15/15/10 4/4/11 16/16/12
f 15/15/10 16/16/12 14/14/9
f 14/14/9 16/16/12 9/9/6
f 4/4/11 17/17/13 16/16/12
f 17/17/13 5/5/14 18/18/15
f 17/17/13 18/18/15 16/16/12
f 16/16/12 18/18/15 9/9/6
f 5/5/14 19/19/16 18/18/15
f 19/19/16 6/6/17 20/20/18
f 19/19/16 20/20/18 18/18/15
f 18/18/15 20/20/18 9/9/6
f 6/6/17 21/21/19 20/20/18
f 21/21/19 7/7/20 22/22/21
f 21/21/19 22/22/21 20/20/18
f 20/20/18 22/22/21 9/9/6
f 7/7/20 23/23/22 22/22/21
f 23/23/22 8/8/23 24/24/24
f 23/23/22 24/24/24 22/22/21
f 22/22/21 24/24/24 9/9/6
f 8/8/23 25/25/25 24/24/24
f 25/25/25 1/1/1 11/11/3
f 25/25/25 11/11/3 24/24/24
f 24/24/24 11/11/3 9/9/6
s 9
f 26/26/26 35/28/27 34/27/28
f 34/27/28 36/30/29 27/29/30
f 34/27/28 35/28/27 36/30/29
s 10
f 51/52/31 50/31/32 52/51/33
s 9
f 27/29/30 36/30/29 37/32/34
f 37/32/34 38/34/35 28/33/36
f 37/32/34 36/30/29 38/34/35
s 10
f 52/51/33 50/31/32 53/53/37
s 9
f 28/33/36 38/34/35 39/35/38
f 39/35/38 40/37/39 29/36/40
f 39/35/38 38/34/35 40/37/39
s 10
f 53/53/37 50/31/32 54/54/41
s 9
f 29/36/40 40/37/39 41/38/42
f 41/38/42 42/40/43 30/39/44
f 41/38/42 40/37/39 42/40/43
s 10
f 54/54/41 50/31/32 55/55/45
s 9
f 30/39/44 42/40/43 43/41/46
f 43/41/46 44/43/47 31/42/48
f 43/41/46 42/40/43 44/43/47
s 10
f 55/55/45 50/31/32 56/56/49
s 9
f 31/42/48 44/43/47 45/44/50
f 45/44/50 46/46/51 32/45/52
f 45/44/50 44/43/47 46/46/51
s 10
f 56/56/49 50/31/32 57/57/53
s 9
f 32/45/52 46/46/51 47/47/54
f 47/47/54 48/49/55 33/48/56
f 47/47/54 46/46/51 48/49/55
s 10
f 57/57/53 50/31/32 58/58/57
s 9
f 33/48/56 48/49/55 49/50/58
f 49/50/58 35/28/27 26/26/26
f 49/50/58 48/49/55 35/28/27
s 10
f 58/58/57 50/31/32 51/52/31
s off
f 19/19/59 5/5/60 30/39/61 43/41/62
f 5/5/63 17/17/64 41/38/65 30/39/66
f 17/17/67 4/4/68 29/36/69 41/38/70
f 4/4/71 15/15/72 39/35/73 29/36/74
f 15/15/75 3/3/76 28/33/77 39/35/78
f 3/3/79 13/13/80 37/32/81 28/33/82
f 13/13/83 2/2/84 27/29/85 37/32/86
f 2/2/87 10/10/88 34/27/89 27/29/90
f 10/10/91 1/1/92 26/26/93 34/27/94
f 1/1/95 25/25/96 49/50/97 26/26/98
f 25/25/99 8/8/100 33/48/101 49/50/102
f 8/8/103 23/23/104 47/47/105 33/48/106
f 23/23/107 7/7/108 32/45/109 47/47/110
f 7/7/111 21/21/112 45/44/113 32/45/114
f 21/21/115 6/6/116 31/42/117 45/44/118
f 6/6/119 19/19/120 43/41/121 31/42/122
f 36/30/123 35/28/124 51/52/125 52/51/126
f 38/34/127 36/30/128 52/51/129 53/53/130
f 40/37/131 38/34/132 53/53/133 54/54/134
f 42/40/135 40/37/136 54/54/137 55/55/138
f 44/43/139 42/40/140 55/55/141 56/56/142
f 46/46/143 44/43/144 56/56/145 57/57/146
f 48/49/147 46/46/148 57/57/149 58/58/150
f 35/28/151 48/49/152 58/58/153 51/52/154
