# This file uses centimeters as units for non-parametric coordinates.

mtllib genericBolt.mtl
g default
v 0.884325 0.116757 -2.961877
v 0.883696 0.117062 -2.942366
v 0.889282 0.129696 -2.928569
v 0.897812 0.147258 -2.928570
v 0.904287 0.159461 -2.942366
v 0.904916 0.159155 -2.961877
v 0.899329 0.146521 -2.975674
v 0.890800 0.128959 -2.975674
v 0.894306 0.138109 -2.952122
v 0.884010 0.116909 -2.952121
v 0.889316 0.127433 -2.956999
v 0.889001 0.127585 -2.947244
v 0.886489 0.123379 -2.935468
v 0.891794 0.133902 -2.940346
v 0.893547 0.138477 -2.928570
v 0.896059 0.142684 -2.940346
v 0.901049 0.153360 -2.935468
v 0.899296 0.148785 -2.947244
v 0.904602 0.159308 -2.952122
v 0.899611 0.148632 -2.957000
v 0.902123 0.152839 -2.968776
v 0.896818 0.142315 -2.963898
v 0.895065 0.137740 -2.975674
v 0.892553 0.133534 -2.963897
v 0.887563 0.122858 -2.968776
v 0.890777 0.113623 -2.961620
v 0.890148 0.113929 -2.942109
v 0.895734 0.126563 -2.928313
v 0.904264 0.144125 -2.928313
v 0.910739 0.156327 -2.942109
v 0.911368 0.156022 -2.961621
v 0.905782 0.143388 -2.975417
v 0.897252 0.125826 -2.975417
v 0.890462 0.113776 -2.951864
v 0.895767 0.124299 -2.956743
v 0.895453 0.124452 -2.946987
v 0.892941 0.120246 -2.935211
v 0.898246 0.130769 -2.940088
v 0.899999 0.135344 -2.928312
v 0.902511 0.139550 -2.940088
v 0.907501 0.150227 -2.935211
v 0.905748 0.145652 -2.946987
v 0.911053 0.156175 -2.951864
v 0.906063 0.145499 -2.956743
v 0.908574 0.149705 -2.968519
v 0.903270 0.139182 -2.963641
v 0.901517 0.134607 -2.975417
v 0.899005 0.130401 -2.963641
v 0.894015 0.119724 -2.968518
v 0.924736 0.123330 -2.950910
v 0.979444 0.083662 -2.953410
v 0.979129 0.083815 -2.943654
v 0.981922 0.090132 -2.936756
v 0.986187 0.098913 -2.936756
v 0.989424 0.105014 -2.943654
v 0.989739 0.104861 -2.953409
v 0.986946 0.098544 -2.960308
v 0.982681 0.089763 -2.960308
vt 0.690929 0.672570
vt 0.685791 0.618995
vt 0.754766 0.646048
vt 0.690649 0.564803
vt 0.754542 0.591188
vt 0.820872 0.618347
vt 0.724900 0.523281
vt 0.766662 0.488396
vt 0.793175 0.552236
vt 0.820246 0.483260
vt 0.874444 0.488130
vt 0.848037 0.552016
vt 0.915954 0.522394
vt 0.950830 0.564158
vt 0.886984 0.590656
vt 0.955956 0.617734
vt 0.951088 0.671922
vt 0.887202 0.645515
vt 0.916833 0.713429
vt 0.875077 0.748304
vt 0.848568 0.684460
vt 0.821507 0.753436
vt 0.767322 0.748573
vt 0.793713 0.684682
vt 0.725808 0.714324
vt 0.007567 0.499326
vt 0.082922 0.475158
vt 0.028396 0.537990
vt 0.089816 0.531808
vt 0.052666 0.588073
vt 0.623816 0.464160
vt 1.000000 0.306504
vt 0.635513 0.518739
vt 0.057673 0.000000
vt 0.094032 0.056802
vt 0.032615 0.049717
vt 0.085938 0.113532
vt 0.011029 0.088082
vt 0.641968 0.083498
vt 0.628764 0.137568
vt 0.019499 0.130520
vt 0.081037 0.173043
vt 0.003310 0.164221
vt 0.618844 0.191701
vt 0.017478 0.198848
vt 0.078402 0.233613
vt 0.001015 0.230412
vt 0.612478 0.246002
vt 0.016456 0.262590
vt 0.077263 0.294492
vt 0.000008 0.293864
vt 0.609788 0.300462
vt 0.015953 0.325382
vt 0.077428 0.355329
vt -0.000000 0.357262
vt 0.610811 0.355018
vt 0.015945 0.389013
vt 0.079068 0.415783
vt 0.001203 0.423302
vt 0.615519 0.409598
vt 0.016798 0.457154
vt 0.986200 0.548275
vt 0.997343 0.617486
vt 0.945045 0.492956
vt 0.888219 0.451887
vt 0.819991 0.441874
vt 0.750768 0.453035
vt 0.695445 0.494203
vt 0.654400 0.551045
vt 0.644403 0.619265
vt 0.655568 0.688473
vt 0.696732 0.743778
vt 0.753557 0.784820
vt 0.821767 0.794823
vt 0.890971 0.783671
vt 0.946278 0.742516
vt 0.987331 0.685697
vn -0.898936 0.436612 -0.035832
vn -0.898947 0.436591 -0.035807
vn -0.898952 0.436581 -0.035808
vn -0.898947 0.436592 -0.035793
vn -0.898948 0.436590 -0.035803
vn -0.898959 0.436568 -0.035797
vn -0.898946 0.436593 -0.035808
vn -0.898947 0.436589 -0.035835
vn -0.898952 0.436580 -0.035812
vn -0.898951 0.436582 -0.035816
vn -0.898966 0.436553 -0.035802
vn -0.898964 0.436558 -0.035799
vn -0.898962 0.436562 -0.035801
vn -0.898931 0.436624 -0.035811
vn -0.898953 0.436580 -0.035799
vn -0.898930 0.436626 -0.035807
vn -0.898934 0.436618 -0.035801
vn -0.898956 0.436572 -0.035811
vn -0.898954 0.436578 -0.035795
vn -0.898968 0.436550 -0.035786
vn -0.898959 0.436568 -0.035805
vn -0.898949 0.436587 -0.035809
vn -0.898965 0.436557 -0.035792
vn -0.898955 0.436576 -0.035793
vn -0.898965 0.436555 -0.035812
vn 0.898951 -0.436582 0.035829
vn 0.898963 -0.436557 0.035817
vn 0.898956 -0.436574 0.035804
vn 0.898957 -0.436572 0.035785
vn 0.898946 -0.436595 0.035783
vn 0.553814 0.739679 0.382316
vn 0.898970 -0.436545 0.035805
vn 0.578020 0.727913 -0.368830
vn 0.898962 -0.436560 0.035805
vn 0.898959 -0.436566 0.035815
vn 0.898956 -0.436570 0.035848
vn 0.362964 0.241526 -0.899957
vn 0.898937 -0.436612 0.035809
vn 0.898959 -0.436567 0.035798
vn 0.898955 -0.436579 0.035771
vn 0.034613 -0.434584 -0.899966
vn 0.898958 -0.436568 0.035811
vn 0.898951 -0.436584 0.035812
vn 0.898931 -0.436624 0.035811
vn -0.214704 -0.904367 -0.368813
vn 0.898941 -0.436605 0.035804
vn 0.898948 -0.436590 0.035809
vn 0.898935 -0.436615 0.035817
vn -0.238922 -0.892604 0.382327
vn 0.898954 -0.436577 0.035815
vn 0.898948 -0.436588 0.035824
vn 0.898952 -0.436578 0.035838
vn -0.023865 -0.406217 0.913465
vn 0.898941 -0.436603 0.035829
vn 0.898961 -0.436562 0.035823
vn 0.898964 -0.436556 0.035824
vn 0.304515 0.269910 0.913466
vn 0.898966 -0.436552 0.035827
vn 0.436852 0.899534 0.000000
vn 0.436852 0.899534 0.000000
vn 0.436852 0.899534 0.000000
vn 0.436852 0.899534 0.000000
vn 0.286126 0.647114 0.706665
vn 0.286126 0.647114 0.706665
vn 0.286126 0.647114 0.706665
vn 0.286126 0.647114 0.706665
vn 0.286156 0.647117 0.706650
vn 0.286156 0.647117 0.706650
vn 0.286156 0.647117 0.706650
vn 0.286156 0.647117 0.706650
vn -0.032222 0.015681 0.999358
vn -0.032222 0.015681 0.999358
vn -0.032222 0.015681 0.999358
vn -0.032222 0.015681 0.999358
vn -0.032223 0.015646 0.999358
vn -0.032223 0.015646 0.999358
vn -0.032223 0.015646 0.999358
vn -0.032223 0.015646 0.999358
vn -0.331682 -0.625032 0.706627
vn -0.331682 -0.625032 0.706627
vn -0.331682 -0.625032 0.706627
vn -0.331682 -0.625032 0.706627
vn -0.331658 -0.624999 0.706667
vn -0.331658 -0.624999 0.706667
vn -0.331658 -0.624999 0.706667
vn -0.331658 -0.624999 0.706667
vn -0.436868 -0.899526 -0.000001
vn -0.436868 -0.899526 -0.000001
vn -0.436868 -0.899526 -0.000001
vn -0.436868 -0.899526 -0.000001
vn -0.436852 -0.899534 0.000000
vn -0.436852 -0.899534 0.000000
vn -0.436852 -0.899534 0.000000
vn -0.436852 -0.899534 0.000000
vn -0.286081 -0.647147 -0.706653
vn -0.286081 -0.647147 -0.706653
vn -0.286081 -0.647147 -0.706653
vn -0.286081 -0.647147 -0.706653
vn -0.286126 -0.647115 -0.706664
vn -0.286126 -0.647115 -0.706664
vn -0.286126 -0.647115 -0.706664
vn -0.286126 -0.647115 -0.706664
vn 0.032249 -0.015682 -0.999357
vn 0.032249 -0.015682 -0.999357
vn 0.032249 -0.015682 -0.999357
vn 0.032249 -0.015682 -0.999357
vn 0.032221 -0.015644 -0.999358
vn 0.032221 -0.015644 -0.999358
vn 0.032221 -0.015644 -0.999358
vn 0.032221 -0.015644 -0.999358
vn 0.331638 0.625004 -0.706672
vn 0.331638 0.625004 -0.706672
vn 0.331638 0.625004 -0.706672
vn 0.331638 0.625004 -0.706672
vn 0.331647 0.625042 -0.706635
vn 0.331647 0.625041 -0.706635
vn 0.331647 0.625041 -0.706635
vn 0.331647 0.625041 -0.706635
vn 0.436851 0.899534 0.000000
vn 0.436851 0.899534 0.000000
vn 0.436851 0.899534 0.000000
vn 0.436851 0.899534 0.000000
vn -0.436855 -0.899532 0.000001
vn -0.436855 -0.899532 0.000001
vn -0.436855 -0.899532 0.000001
vn -0.436855 -0.899532 0.000001
vn -0.331682 -0.624997 0.706659
vn -0.331682 -0.624997 0.706659
vn -0.331682 -0.624997 0.706659
vn -0.331682 -0.624997 0.706659
vn -0.032208 0.015617 0.999359
vn -0.032208 0.015617 0.999359
vn -0.032208 0.015617 0.999359
vn -0.032208 0.015617 0.999359
vn 0.286136 0.647147 0.706631
vn 0.286136 0.647147 0.706631
vn 0.286136 0.647147 0.706631
vn 0.286136 0.647147 0.706631
vn 0.436864 0.899528 -0.000005
vn 0.436864 0.899528 -0.000005
vn 0.436864 0.899528 -0.000005
vn 0.436864 0.899528 -0.000005
vn 0.331671 0.625003 -0.706659
vn 0.331671 0.625003 -0.706659
vn 0.331671 0.625003 -0.706659
vn 0.331671 0.625003 -0.706659
vn 0.032216 -0.015632 -0.999359
vn 0.032216 -0.015632 -0.999359
vn 0.032216 -0.015632 -0.999359
vn 0.032216 -0.015632 -0.999359
vn -0.286119 -0.647122 -0.706660
vn -0.286119 -0.647122 -0.706660
vn -0.286119 -0.647122 -0.706660
vn -0.286119 -0.647122 -0.706660
s 1
usemtl BoltMesh
f 1/1/1 10/2/2 11/3/3
f 10/2/2 2/4/4 12/5/5
f 10/2/2 12/5/5 11/3/3
f 11/3/3 12/5/5 9/6/6
f 2/4/4 13/7/7 12/5/5
f 13/7/7 3/8/8 14/9/9
f 13/7/7 14/9/9 12/5/5
f 12/5/5 14/9/9 9/6/6
f 3/8/8 15/10/10 14/9/9
f 15/10/10 4/11/11 16/12/12
f 15/10/10 16/12/12 14/9/9
f 14/9/9 16/12/12 9/6/6
f 4/11/11 17/13/13 16/12/12
f 17/13/13 5/14/14 18/15/15
f 17/13/13 18/15/15 16/12/12
f 16/12/12 18/15/15 9/6/6
f 5/14/14 19/16/16 18/15/15
f 19/16/16 6/17/17 20/18/18
f 19/16/16 20/18/18 18/15/15
f 18/15/15 20/18/18 9/6/6
f 6/17/17 21/19/19 20/18/18
f 21/19/19 7/20/20 22/21/21
f 21/19/19 22/21/21 20/18/18
f 20/18/18 22/21/21 9/6/6
f 7/20/20 23/22/22 22/21/21
f 23/22/22 8/23/23 24/24/24
f 23/22/22 24/24/24 22/21/21
f 22/21/21 24/24/24 9/6/6
f 8/23/23 25/25/25 24/24/24
f 25/25/25 1/1/1 11/3/3
f 25/25/25 11/3/3 24/24/24
f 24/24/24 11/3/3 9/6/6
s 9
f 26/26/26 35/27/27 34/28/28
f 34/28/28 36/29/29 27/30/30
f 34/28/28 35/27/27 36/29/29
s 10
f 51/31/31 50/32/32 52/33/33
s 9
f 27/34/30 36/35/29 37/36/34
f 37/36/34 38/37/35 28/38/36
f 37/36/34 36/35/29 38/37/35
s 10
f 52/39/33 50/32/32 53/40/37
s 9
f 28/38/36 38/37/35 39/41/38
f 39/41/38 40/42/39 29/43/40
f 39/41/38 38/37/35 40/42/39
s 10
f 53/40/37 50/32/32 54/44/41
s 9
f 29/43/40 40/42/39 41/45/42
f 41/45/42 42/46/43 30/47/44
f 41/45/42 40/42/39 42/46/43
s 10
f 54/44/41 50/32/32 55/48/45
s 9
f 30/47/44 42/46/43 43/49/46
f 43/49/46 44/50/47 31/51/48
f 43/49/46 42/46/43 44/50/47
s 10
f 55/48/45 50/32/32 56/52/49
s 9
f 31/51/48 44/50/47 45/53/50
f 45/53/50 46/54/51 32/55/52
f 45/53/50 44/50/47 46/54/51
s 10
f 56/52/49 50/32/32 57/56/53
s 9
f 32/55/52 46/54/51 47/57/54
f 47/57/54 48/58/55 33/59/56
f 47/57/54 46/54/51 48/58/55
s 10
f 57/56/53 50/32/32 58/60/57
s 9
f 33/59/56 48/58/55 49/61/58
f 49/61/58 35/27/27 26/26/26
f 49/61/58 48/58/55 35/27/27
s 10
f 58/60/57 50/32/32 51/31/31
s off
f 19/16/59 5/14/60 30/62/61 43/63/62
f 5/14/63 17/13/64 41/64/65 30/62/66
f 17/13/67 4/11/68 29/65/69 41/64/70
f 4/11/71 15/10/72 39/66/73 29/65/74
f 15/10/75 3/8/76 28/67/77 39/66/78
f 3/8/79 13/7/80 37/68/81 28/67/82
f 13/7/83 2/4/84 27/69/85 37/68/86
f 2/4/87 10/2/88 34/70/89 27/69/90
f 10/2/91 1/1/92 26/71/93 34/70/94
f 1/1/95 25/25/96 49/72/97 26/71/98
f 25/25/99 8/23/100 33/73/101 49/72/102
f 8/23/103 23/22/104 47/74/105 33/73/106
f 23/22/107 7/20/108 32/75/109 47/74/110
f 7/20/111 21/19/112 45/76/113 32/75/114
f 21/19/115 6/17/116 31/77/117 45/76/118
f 6/17/119 19/16/120 43/63/121 31/77/122
f 36/29/123 35/27/124 51/31/125 52/33/126
f 38/37/127 36/35/128 52/39/129 53/40/130
f 40/42/131 38/37/132 53/40/133 54/44/134
f 42/46/135 40/42/136 54/44/137 55/48/138
f 44/50/139 42/46/140 55/48/141 56/52/142
f 46/54/143 44/50/144 56/52/145 57/56/146
f 48/58/147 46/54/148 57/56/149 58/60/150
f 35/27/151 48/58/152 58/60/153 51/31/154
