# This file uses centimeters as units for non-parametric coordinates.

mtllib Light.mtl
g default
v -0.721022 0.111426 -2.783258
v -0.721022 0.111426 -2.783258
v -0.721022 0.111426 -2.783258
v -0.721022 0.111426 -2.783258
v 0.721022 0.111426 -2.783258
v 0.721022 0.111426 -2.783258
v 0.721022 0.111426 -2.783258
v 0.721022 0.111426 -2.783258
v -0.872584 -0.484922 -0.531498
v -0.872914 0.502449 -0.529209
v -0.713952 0.482523 -1.596045
v -0.707659 -0.483817 -1.606243
v 0.707659 -0.483817 -1.606243
v 0.713952 0.482523 -1.596045
v 0.872914 0.502449 -0.529209
v 0.872584 -0.484922 -0.531498
v -0.446829 0.490400 -1.837654
v -0.438485 -0.475940 -1.839770
v 0.438485 -0.475940 -1.839770
v 0.446829 0.490400 -1.837654
v -0.145145 0.490743 -1.903445
v -0.136802 -0.475597 -1.903445
v 0.136802 -0.475597 -1.903445
v 0.145145 0.490743 -1.903445
v 0.000000 0.486610 -1.903445
v 0.000000 -0.478440 -1.903445
v -0.525184 0.512575 -0.708169
v 0.525184 0.512575 -0.708169
v -0.168903 0.510260 -0.789227
v 0.168903 0.510260 -0.789227
v 0.000000 0.510636 -0.789786
v -0.485625 -0.498284 -0.719179
v 0.485625 -0.498284 -0.719179
v -0.158636 -0.493708 -0.787650
v 0.158636 -0.493708 -0.787650
v 0.000000 -0.495735 -0.790661
v -0.462417 0.840421 -0.489050
v -0.469928 0.377940 -0.489050
v -0.976507 0.367203 -0.220543
v -0.976507 0.838724 -0.215912
v 0.976507 0.838724 -0.215912
v 0.976507 0.367203 -0.220543
v 0.469928 0.377940 -0.489050
v 0.462417 0.840421 -0.489050
v -0.973530 0.363582 0.262499
v -0.972523 0.839669 0.263015
v 0.972523 0.839669 0.263015
v 0.973530 0.363582 0.262499
v -0.495664 0.361223 0.512291
v -0.486308 0.841639 0.510950
v 0.486308 0.841639 0.510950
v 0.495664 0.361223 0.512291
v 0.000000 0.363238 0.510950
v 0.000000 0.839963 0.510950
v 0.000000 0.842788 -0.488909
v 0.000000 0.375607 -0.489050
v -0.357235 0.361223 1.191111
v 0.000000 0.354775 1.195885
v 0.357235 0.361223 1.191111
v -0.699684 0.361223 0.944667
v 0.699684 0.361223 0.944667
v -0.346377 -0.686894 1.187295
v 0.000000 -0.687399 1.192503
v 0.346377 -0.686894 1.187295
v -0.692306 -0.662236 0.932579
v 0.692306 -0.662236 0.932579
v -0.965539 -0.594852 0.233916
v 0.965539 -0.594852 0.233916
v -0.964568 -0.550941 -0.219891
v 0.964568 -0.550941 -0.219891
v -0.447268 -0.527392 -0.468056
v 0.447268 -0.527392 -0.468056
v 0.000000 0.377649 -0.489050
v 0.000000 -0.527425 -0.467820
v -0.361491 -0.641925 0.722773
v 0.000000 -0.642429 0.727982
v 0.361491 -0.641925 0.722773
vt 0.000000 0.000000
vt 0.000000 0.000000
vt 0.000000 0.000000
vt 0.000000 0.000000
vt 0.000000 0.000000
vt 1.000000 0.000000
vt 1.000000 1.000000
vt 0.000000 1.000000
vt 0.000000 0.000000
vt 1.000000 0.000000
vt 1.000000 1.000000
vt 0.000000 1.000000
vt 0.000000 0.000000
vt 1.000000 0.000000
vt 1.000000 1.000000
vt 0.000000 1.000000
vt 0.000000 0.000000
vt 1.000000 0.000000
vt 1.000000 1.000000
vt 0.000000 1.000000
vt 0.000000 0.000000
vt 1.000000 0.000000
vt 1.000000 1.000000
vt 0.000000 1.000000
vt 0.000000 0.000000
vt 1.000000 0.000000
vt 1.000000 1.000000
vt 0.000000 1.000000
vt 0.000000 0.000000
vt 1.000000 0.000000
vt 1.000000 1.000000
vt 0.000000 1.000000
vt 0.000000 0.000000
vt 1.000000 0.000000
vt 1.000000 1.000000
vt 0.000000 1.000000
vt 0.000000 0.000000
vt 1.000000 0.000000
vt 1.000000 1.000000
vt 0.000000 1.000000
vt 0.000000 0.000000
vt 1.000000 0.000000
vt 1.000000 1.000000
vt 0.000000 1.000000
vt 0.000000 0.000000
vt 1.000000 0.000000
vt 1.000000 1.000000
vt 0.000000 1.000000
vt 0.000000 0.000000
vt 1.000000 0.000000
vt 1.000000 1.000000
vt 0.000000 1.000000
vt 0.000000 0.000000
vt 1.000000 0.000000
vt 1.000000 1.000000
vt 0.000000 1.000000
vt 0.000000 0.000000
vt 1.000000 0.000000
vt 1.000000 1.000000
vt 0.000000 1.000000
vt 0.000000 0.000000
vt 1.000000 0.000000
vt 1.000000 1.000000
vt 0.000000 1.000000
vt 0.000000 0.000000
vt 1.000000 0.000000
vt 1.000000 1.000000
vt 0.000000 1.000000
vt 0.000000 0.000000
vt 1.000000 0.000000
vt 1.000000 1.000000
vt 0.000000 1.000000
vt 0.000000 0.000000
vt 1.000000 0.000000
vt 1.000000 1.000000
vt 0.000000 1.000000
vt 0.000000 0.000000
vt 1.000000 0.000000
vt 1.000000 1.000000
vt 0.000000 1.000000
vt 0.000000 0.000000
vt 1.000000 0.000000
vt 1.000000 1.000000
vt 0.000000 1.000000
vt 0.000000 0.000000
vt 1.000000 0.000000
vt 1.000000 1.000000
vt 0.000000 1.000000
vt 0.000000 0.000000
vt 1.000000 0.000000
vt 1.000000 1.000000
vt 0.000000 1.000000
vt 0.000000 0.000000
vt 1.000000 0.000000
vt 1.000000 1.000000
vt 0.000000 1.000000
vt 0.000000 0.000000
vt 1.000000 0.000000
vt 1.000000 1.000000
vt 0.000000 1.000000
vt 0.000000 0.000000
vt 1.000000 0.000000
vt 1.000000 1.000000
vt 0.000000 1.000000
vt 0.000000 0.000000
vt 1.000000 0.000000
vt 1.000000 1.000000
vt 0.000000 1.000000
vt 0.000000 0.000000
vt 1.000000 0.000000
vt 1.000000 1.000000
vt 0.000000 1.000000
vt 0.000000 0.000000
vt 1.000000 0.000000
vt 1.000000 1.000000
vt 0.000000 1.000000
vt 0.000000 0.000000
vt 1.000000 0.000000
vt 1.000000 1.000000
vt 0.000000 1.000000
vt 0.000000 0.000000
vt 1.000000 0.000000
vt 1.000000 1.000000
vt 0.000000 1.000000
vt 0.000000 0.000000
vt 1.000000 0.000000
vt 1.000000 1.000000
vt 0.000000 1.000000
vt 0.000000 0.000000
vt 1.000000 0.000000
vt 1.000000 1.000000
vt 0.000000 1.000000
vt 0.000000 0.000000
vt 1.000000 0.000000
vt 1.000000 1.000000
vt 0.000000 1.000000
vt 0.000000 0.000000
vt 1.000000 0.000000
vt 1.000000 1.000000
vt 0.000000 1.000000
vt 0.000000 0.000000
vt 1.000000 0.000000
vt 1.000000 1.000000
vt 0.000000 1.000000
vt 0.000000 0.000000
vt 1.000000 0.000000
vt 1.000000 1.000000
vt 0.000000 1.000000
vt 0.000000 0.000000
vt 1.000000 0.000000
vt 1.000000 1.000000
vt 0.000000 1.000000
vt 0.000000 0.000000
vt 1.000000 0.000000
vt 1.000000 1.000000
vt 0.000000 1.000000
vt 0.000000 0.000000
vt 1.000000 0.000000
vt 1.000000 1.000000
vt 0.000000 1.000000
vt 0.000000 0.000000
vt 1.000000 0.000000
vt 1.000000 1.000000
vt 0.000000 1.000000
vt 0.000000 0.000000
vt 1.000000 0.000000
vt 1.000000 1.000000
vt 0.000000 1.000000
vt 0.000000 0.000000
vt 1.000000 0.000000
vt 1.000000 1.000000
vt 0.000000 1.000000
vt 0.000000 0.000000
vt 1.000000 0.000000
vt 1.000000 1.000000
vt 0.000000 1.000000
vt 0.000000 0.000000
vt 1.000000 0.000000
vt 1.000000 1.000000
vt 0.000000 1.000000
vt 0.000000 0.000000
vt 1.000000 0.000000
vt 1.000000 1.000000
vt 0.000000 1.000000
vt 0.000000 0.000000
vt 1.000000 0.000000
vt 1.000000 1.000000
vt 0.000000 1.000000
vt 0.000000 0.000000
vt 1.000000 0.000000
vt 1.000000 1.000000
vt 0.000000 1.000000
vt 0.000000 0.000000
vt 1.000000 0.000000
vt 1.000000 1.000000
vt 0.000000 1.000000
vt 0.000000 0.000000
vt 1.000000 0.000000
vt 1.000000 1.000000
vt 0.000000 1.000000
vt 0.000000 0.000000
vt 1.000000 0.000000
vt 1.000000 1.000000
vt 0.000000 1.000000
vt 0.000000 0.000000
vt 1.000000 0.000000
vt 1.000000 1.000000
vt 0.000000 1.000000
vt 0.000000 0.000000
vt 1.000000 0.000000
vt 1.000000 1.000000
vt 0.000000 1.000000
vt 0.000000 0.000000
vt 1.000000 0.000000
vt 1.000000 1.000000
vt 0.000000 1.000000
vt 0.000000 0.000000
vt 1.000000 0.000000
vt 1.000000 1.000000
vt 0.000000 1.000000
vt 0.000000 0.000000
vt 1.000000 0.000000
vt 1.000000 1.000000
vt 0.000000 1.000000
vt 0.000000 0.000000
vt 1.000000 0.000000
vt 1.000000 1.000000
vt 0.000000 1.000000
vt 0.000000 0.000000
vt 1.000000 0.000000
vt 1.000000 1.000000
vt 0.000000 1.000000
vt 0.000000 0.000000
vt 1.000000 0.000000
vt 1.000000 1.000000
vt 0.000000 1.000000
vt 0.000000 0.000000
vt 1.000000 0.000000
vt 1.000000 1.000000
vt 0.000000 1.000000
vt 0.000000 0.000000
vt 1.000000 0.000000
vt 1.000000 1.000000
vt 0.000000 1.000000
vt 0.000000 0.000000
vt 1.000000 0.000000
vt 1.000000 1.000000
vt 0.000000 1.000000
vt 0.000000 0.000000
vt 1.000000 0.000000
vt 1.000000 1.000000
vt 0.000000 1.000000
vt 0.000000 0.000000
vt 1.000000 0.000000
vt 1.000000 1.000000
vt 0.000000 1.000000
vt 0.000000 0.000000
vt 1.000000 0.000000
vt 1.000000 1.000000
vt 0.000000 1.000000
vt 0.000000 0.000000
vt 1.000000 0.000000
vt 1.000000 1.000000
vt 0.000000 1.000000
vn 0.000000 0.000000 0.000000
vn 0.000000 0.000000 0.000000
vn 0.000000 0.000000 0.000000
vn 0.000000 0.000000 0.000000
vn 0.000000 0.000000 0.000000
vn 0.000000 0.000000 0.000000
vn 0.000000 0.000000 0.000000
vn 0.000000 0.000000 0.000000
vn -0.884080 -0.365053 -0.291788
vn -0.944884 -0.229090 0.233905
vn -0.949281 0.208273 0.235560
vn -0.896739 0.330040 -0.294844
vn 0.944884 -0.229089 0.233905
vn 0.884079 -0.365053 -0.291788
vn 0.896739 0.330040 -0.294844
vn 0.949281 0.208273 0.235560
vn -0.345313 0.678021 -0.648880
vn -0.343338 -0.673476 -0.654637
vn 0.343338 -0.673476 -0.654637
vn 0.345313 0.678021 -0.648880
vn -0.093089 0.742918 -0.662878
vn -0.099491 -0.725503 -0.680990
vn 0.099491 -0.725503 -0.680990
vn 0.093089 0.742918 -0.662878
vn -0.000000 0.776279 -0.630390
vn -0.000000 -0.768723 -0.639582
vn 0.232665 0.702691 0.672379
vn -0.232665 0.702691 0.672379
vn 0.101679 0.761352 0.640315
vn -0.101679 0.761352 0.640315
vn 0.000000 0.736641 0.676284
vn 0.236421 -0.709066 0.664327
vn -0.236421 -0.709066 0.664327
vn 0.100907 -0.740437 0.664508
vn -0.100907 -0.740437 0.664508
vn -0.000000 -0.719720 0.694264
vn -0.552302 0.748973 -0.366064
vn -0.144894 0.840432 -0.522188
vn -0.263147 -0.012465 -0.964675
vn -0.825086 -0.009885 -0.564921
vn 0.144894 0.840431 -0.522188
vn 0.552302 0.748973 -0.366064
vn 0.825086 -0.009885 -0.564921
vn 0.263147 -0.012466 -0.964675
vn -0.943928 0.056846 0.325222
vn -0.544451 0.756299 0.362747
vn 0.544451 0.756299 0.362747
vn 0.943928 0.056846 0.325222
vn -0.155657 0.771857 0.616448
vn -0.135250 0.836754 0.530613
vn 0.135250 0.836754 0.530613
vn 0.155657 0.771857 0.616448
vn 0.000000 0.774535 0.632532
vn 0.000000 0.895529 0.445003
vn 0.000000 0.910403 -0.413722
vn 0.000000 0.000151 -1.000000
vn -0.299518 0.490693 0.818235
vn -0.000000 0.609074 0.793113
vn 0.299518 0.490693 0.818235
vn -0.793587 0.301737 0.528370
vn 0.793587 0.301737 0.528370
vn -0.322032 -0.383859 0.865418
vn -0.000000 -0.422908 0.906173
vn 0.322032 -0.383859 0.865418
vn -0.794109 -0.329501 0.510706
vn 0.794109 -0.329501 0.510706
vn -0.826617 -0.541023 0.154917
vn 0.826617 -0.541023 0.154917
vn -0.661549 -0.570169 -0.487094
vn 0.661549 -0.570169 -0.487094
vn -0.184255 -0.635678 -0.749643
vn 0.184255 -0.635678 -0.749643
vn -0.000000 -0.023314 -0.999728
vn -0.000000 -0.729536 -0.683943
vn -0.000034 -0.995385 -0.095959
vn 0.000000 -0.995392 -0.095894
vn 0.000034 -0.995385 -0.095959
s off
g polySurface1
usemtl initialShadingGroup
f 1/1/1 2/2/2 3/3/3 4/4/4
f 8/5/5 5/6/6 6/7/7 7/8/8
s 1
f 12/9/9 9/10/10 10/11/11 11/12/12
f 16/13/13 13/14/14 14/15/15 15/16/16
f 12/17/9 11/18/12 17/19/17 18/20/18
f 14/21/15 13/22/14 19/23/19 20/24/20
f 18/25/18 17/26/17 21/27/21 22/28/22
f 20/29/20 19/30/19 23/31/23 24/32/24
f 22/33/22 21/34/21 25/35/25 26/36/26
f 24/37/24 23/38/23 26/39/26 25/40/25
f 11/41/12 10/42/11 27/43/27 17/44/17
f 15/45/16 14/46/15 20/47/20 28/48/28
f 17/49/17 27/50/27 29/51/29 21/52/21
f 28/53/28 20/54/20 24/55/24 30/56/30
f 21/57/21 29/58/29 31/59/31 25/60/25
f 30/61/30 24/62/24 25/63/25 31/64/31
f 9/65/10 12/66/9 18/67/18 32/68/32
f 13/69/14 16/70/13 33/71/33 19/72/19
f 32/73/32 18/74/18 22/75/22 34/76/34
f 19/77/19 33/78/33 35/79/35 23/80/23
f 34/81/34 22/82/22 26/83/26 36/84/36
f 23/85/23 35/86/35 36/87/36 26/88/26
f 34/89/34 36/90/36 31/91/31 29/92/29
f 36/93/36 35/94/35 30/95/30 31/96/31
f 34/97/34 29/98/29 27/99/27 32/100/32
f 30/101/30 35/102/35 33/103/33 28/104/28
f 32/105/32 27/106/27 10/107/11 9/108/10
f 28/109/28 33/110/33 16/111/13 15/112/16
s 3
f 40/113/37 37/114/38 38/115/39 39/116/40
f 44/117/41 41/118/42 42/119/43 43/120/44
f 40/121/37 39/122/40 45/123/45 46/124/46
f 42/125/43 41/126/42 47/127/47 48/128/48
f 46/129/46 45/130/45 49/131/49 50/132/50
f 48/133/48 47/134/47 51/135/51 52/136/52
f 50/137/50 49/138/49 53/139/53 54/140/54
f 52/141/52 51/142/51 54/143/54 53/144/53
f 38/145/39 37/146/38 55/147/55 56/148/56
f 44/149/41 43/150/44 56/151/56 55/152/55
f 53/153/53 49/154/49 57/155/57 58/156/58
f 52/157/52 53/158/53 58/159/58 59/160/59
f 57/161/57 49/162/49 45/163/45 60/164/60
f 52/165/52 59/166/59 61/167/61 48/168/48
f 58/169/58 57/170/57 62/171/62 63/172/63
f 59/173/59 58/174/58 63/175/63 64/176/64
f 62/177/62 57/178/57 60/179/60 65/180/65
f 59/181/59 64/182/64 66/183/66 61/184/61
f 65/185/65 60/186/60 45/187/45 67/188/67
f 61/189/61 66/190/66 68/191/68 48/192/48
f 67/193/67 45/194/45 39/195/40 69/196/69
f 48/197/48 68/198/68 70/199/70 42/200/43
f 69/201/69 39/202/40 38/203/39 71/204/71
f 42/205/43 70/206/70 72/207/72 43/208/44
f 71/209/71 38/210/39 73/211/73 74/212/74
f 43/213/44 72/214/72 74/215/74 73/216/73
f 63/217/63 62/218/62 75/219/75 76/220/76
f 64/221/64 63/222/63 76/223/76 77/224/77
f 75/225/75 62/226/62 65/227/65 67/228/67
f 64/229/64 77/230/77 68/231/68 66/232/66
f 69/233/69 71/234/71 75/235/75 67/236/67
f 72/237/72 70/238/70 68/239/68 77/240/77
f 71/241/71 74/242/74 76/243/76 75/244/75
f 74/245/74 72/246/72 77/247/77 76/248/76
f 37/249/38 40/250/37 46/251/46 50/252/50
f 41/253/42 44/254/41 51/255/51 47/256/47
f 50/257/50 54/258/54 55/259/55 37/260/38
f 54/261/54 51/262/51 44/263/41 55/264/55
