# This file uses centimeters as units for non-parametric coordinates.

mtllib PipingTest.mtl
g default
v 0.623490 -6.143950 -0.781831
v -0.222521 -6.143950 -0.974928
v -0.900969 -6.143950 -0.433884
v -0.900969 -6.143950 0.433884
v -0.222521 -6.143950 0.974928
v 0.623490 -6.143950 0.781832
v 1.000000 -6.143950 0.000000
v 0.623490 6.143950 -0.781831
v -0.222521 6.143950 -0.974928
v -0.900969 6.143950 -0.433884
v -0.900969 6.143950 0.433884
v -0.222521 6.143950 0.974928
v 0.623490 6.143950 0.781832
v 1.000000 6.143950 0.000000
v 5.296288 12.143128 -0.316278
v 4.636182 12.672272 -0.509375
v 4.106817 13.096613 0.031669
v 4.106817 13.096613 0.899437
v 4.636182 12.672272 1.440481
v 5.296288 12.143128 1.247384
v 5.590064 11.907637 0.465553
v 12.981850 21.730862 -0.316278
v 12.321743 22.260006 -0.509375
v 11.792378 22.684345 0.031669
v 11.792377 22.684345 0.899437
v 12.321743 22.260006 1.440481
v 12.981850 21.730862 1.247384
v 13.275624 21.495371 0.465553
v -11.639381 -23.598969 -0.316278
v -12.299488 -23.069826 -0.509375
v -12.828853 -22.645485 0.031669
v -12.828853 -22.645485 0.899437
v -12.299488 -23.069826 1.440481
v -11.639381 -23.598969 1.247384
v -11.345606 -23.834461 0.465553
v -3.953821 -14.011236 -0.316278
v -4.613927 -13.482092 -0.509375
v -5.143291 -13.057752 0.031669
v -5.143292 -13.057752 0.899437
v -4.613927 -13.482092 1.440481
v -3.953821 -14.011236 1.247384
v -3.660046 -14.246727 0.465553
v -0.433258 -8.593921 -0.924520
v 0.385206 -8.745712 -0.735857
v 0.761641 -8.790451 0.043046
v 0.412584 -8.694450 0.825658
v -0.399118 -8.530001 1.022657
v -1.062237 -8.420935 0.485699
v -1.077431 -8.449382 -0.380877
v -1.378104 -10.209139 -0.740767
v -0.717831 -10.716806 -0.534658
v -0.394397 -10.887092 0.249896
v -0.651354 -10.591766 1.022109
v -1.295210 -10.053217 1.200489
v -1.841126 -9.676982 0.650713
v -1.878018 -9.746374 -0.213228
v -2.909080 -11.586188 -0.558658
v -2.288982 -12.156542 -0.353921
v -2.002059 -12.385662 0.432080
v -2.264371 -12.101017 1.207472
v -2.878391 -11.516951 1.388367
v -3.381750 -11.073277 0.838548
v -3.395407 -11.104091 -0.027960
v 0.068918 8.441778 -0.925641
v -0.574946 8.594661 -0.386983
v -0.592689 8.565593 0.479448
v 0.029050 8.376464 1.021211
v 0.822089 8.169691 0.830348
v 1.189253 8.100979 0.050583
v 0.854060 8.222069 -0.730906
v 1.318396 9.910122 -0.732435
v 0.847995 10.371597 -0.176096
v 0.802472 10.300409 0.687238
v 1.216109 9.750162 1.207459
v 1.777427 9.135204 0.992830
v 2.063743 8.918610 0.204971
v 1.859456 9.263481 -0.562844
v 3.014155 10.998126 -0.552856
v 2.542979 11.471247 -0.001043
v 2.526163 11.438812 0.865259
v 2.976370 10.925246 1.393706
v 3.554585 10.317276 1.186366
v 3.825401 10.072712 0.399372
v 3.584886 10.375720 -0.374655
v 2.558647 -6.143950 -3.208441
v -0.913170 -6.143950 -4.000861
v -0.913170 6.143950 -4.000861
v 2.558647 6.143950 -3.208441
v -3.697351 -6.143950 -1.780551
v -3.697351 6.143950 -1.780551
v -3.697352 -6.143950 1.780550
v -3.697352 6.143950 1.780550
v -0.913170 -6.143950 4.000861
v -0.913170 6.143950 4.000861
v 2.558647 -6.143950 3.208442
v 2.558647 6.143950 3.208442
v 4.103751 -6.143950 0.000000
v 4.103751 6.143950 0.000000
v -0.048806 8.645500 -1.775241
v -1.189354 9.137989 -0.751972
v 0.233587 10.914926 -0.541085
v 1.200672 10.113844 -1.582035
v -1.241914 9.045207 0.864819
v 0.153247 10.780024 1.072610
v -0.172901 8.420121 1.875363
v 1.014158 9.793819 2.061611
v 1.184703 7.700061 1.493745
v 2.140041 8.665575 1.656227
v 1.822140 7.459035 0.031264
v 2.696630 8.276666 0.185652
v 1.297429 7.891740 -1.420628
v 2.302825 8.933151 -1.252566
vt 0.401154 0.592920
vt 0.519127 0.592920
vt 0.519127 1.000000
vt 0.401154 1.000000
vt 0.592683 0.592920
vt 0.592683 1.000000
vt 0.327598 0.592920
vt 0.327598 1.000000
vt 0.707699 0.592920
vt 0.106291 0.592920
vt 0.106291 1.000000
vt 0.000000 1.000000
vt 0.212582 0.592920
vt 0.212582 1.000000
vt 0.154133 0.111500
vt 0.149730 0.138194
vt 0.526508 0.157815
vt 0.506178 0.141287
vt 0.126181 0.149971
vt 0.545168 0.176380
vt 0.479200 0.206256
vt 0.460870 0.187056
vt 0.497948 0.224499
vt 0.432081 0.250369
vt 0.413853 0.230329
vt 0.450371 0.269721
vt 0.377966 0.303767
vt 0.358985 0.285106
vt 0.396871 0.322605
vt 0.114785 0.574363
vt 0.095655 0.555799
vt 0.133923 0.592930
vt 0.091199 0.107963
vt 0.109698 0.089001
vt 0.462278 0.111048
vt 0.441676 0.091754
vt 0.136729 0.090429
vt 0.484538 0.126547
vt 0.425446 0.146948
vt 0.406277 0.126832
vt 0.094693 0.133832
vt 0.424079 0.070159
vt 0.443471 0.167239
vt 0.377759 0.191663
vt 0.359219 0.173368
vt 0.386770 0.108264
vt 0.320654 0.248278
vt 0.301613 0.229766
vt 0.057392 0.518665
vt 0.038257 0.500080
vt 0.896854 0.000038
vt 0.923289 0.000000
vt 0.925153 0.074744
vt 0.302125 0.026303
vt 0.949670 0.001996
vt 0.950959 0.070916
vt 0.260314 0.007547
vt 0.840112 0.401589
vt 0.870521 0.002782
vt 0.872180 0.073864
vt 0.899778 0.463372
vt 0.850161 0.471209
vt 0.937699 0.395906
vt 0.948709 0.450659
vt 0.791150 0.010127
vt 0.817777 0.009487
vt 0.820281 0.069742
vt 0.793930 0.072531
vt 0.844250 0.006713
vt 0.846598 0.070840
vt 0.367815 0.388412
vt 0.480198 0.486733
vt 0.525984 0.442752
vt 0.544571 0.461508
vt 0.461644 0.467910
vt 0.506463 0.425127
vt 0.576248 0.386852
vt 0.455866 0.280838
vt 0.555706 0.369806
vt 0.826371 0.105949
vt 0.845998 0.124003
vt 0.806153 0.088583
vt 0.180997 0.005671
vt 0.246677 0.088928
vt 0.074439 0.000000
vt 0.226180 0.194858
vt 0.000000 0.079720
vt 0.128846 0.245500
vt 0.017656 0.189268
vt 0.866486 0.307913
vt 0.892431 0.301991
vt 0.951778 0.376410
vt 0.845305 0.400712
vt 0.903978 0.278014
vt 0.999164 0.278014
vt 0.845679 0.291320
vt 0.759920 0.332619
vt 0.892431 0.254037
vt 0.951778 0.179618
vt 0.845679 0.264707
vt 0.759920 0.223408
vt 0.866486 0.248115
vt 0.845305 0.155316
vt 0.276191 0.029782
vt 0.262856 0.052143
vt 0.235957 0.050178
vt 0.271402 0.076770
vt 0.253631 0.094754
vt 0.296985 0.083150
vt 0.301603 0.110504
vt 0.319158 0.069302
vt 0.342831 0.082311
vt 0.699025 0.477031
vt 0.648882 0.477582
vt 0.321720 0.043559
vt 0.347061 0.034122
vt 0.749392 0.475451
vt 0.310747 0.000000
vt 0.535166 0.352670
vt 0.786182 0.071035
vt 0.486888 0.407199
vt 0.514781 0.335277
vt 0.766286 0.053454
vt 0.443037 0.451282
vt 0.466879 0.388668
vt 0.424274 0.436319
vt 0.494826 0.317399
vt 0.475291 0.299114
vt 0.726834 0.017887
vt 0.746521 0.035735
vt 0.446115 0.370570
vt 0.425579 0.353156
vt 0.406306 0.420522
vt 0.387547 0.404825
vt 0.076524 0.537237
vt 0.339836 0.266656
vt 0.395862 0.210575
vt 0.019125 0.481485
vt 0.282759 0.211025
vt 0.000000 0.462889
vt 0.263974 0.192129
vt 0.340717 0.155146
vt 0.322248 0.136582
vt 0.367822 0.090372
vt 0.408087 0.049107
vt 0.462970 0.000000
vt 0.976150 0.004172
vt 0.976456 0.066635
vt 0.986422 0.395674
vt 0.996900 0.436422
vt 0.793016 0.415254
vt 0.799879 0.474185
vt 0.077038 0.268302
vt 0.060068 0.247844
vt 0.067559 0.216601
vt 0.097018 0.254880
vt 0.036288 0.254080
vt 0.024141 0.228717
vt 0.074420 0.300050
vt 0.092057 0.314221
vt 0.023606 0.282315
vt 0.000000 0.281605
vt 0.054185 0.319180
vt 0.055791 0.350590
vt 0.031571 0.311288
vt 0.014301 0.335683
vt 0.000000 0.592920
vt 0.707699 1.000000
vt 0.892431 0.254037
vt 0.951778 0.179618
vt 0.699055 0.440187
vt 0.746982 0.430723
vt 0.650236 0.435449
vt 0.888960 0.395776
vt 0.898404 0.075866
vt 0.273199 0.076134
vt 0.253283 0.097126
vt 0.497587 0.506849
vt 0.031571 0.311288
vt 0.014301 0.335683
vt 0.405265 0.336071
vt 0.595767 0.405007
vt 0.707124 0.000000
vt 0.577359 0.097819
vt 0.555453 0.081847
vt 0.596650 0.116238
vt 0.477575 0.021271
vt 0.492833 0.040342
vt 0.511555 0.055522
vt 0.532704 0.068647
vt 0.118390 0.145971
vt 0.114927 0.240673
vn 0.222521 0.000000 -0.974928
vn 0.222521 0.000000 -0.974928
vn 0.222521 0.000000 -0.974928
vn 0.222521 0.000000 -0.974928
vn -0.623490 0.000000 -0.781832
vn -0.623490 0.000000 -0.781832
vn -0.623490 0.000000 -0.781832
vn -0.623490 0.000000 -0.781832
vn -1.000000 0.000000 -0.000000
vn -1.000000 0.000000 -0.000000
vn -1.000000 0.000000 -0.000000
vn -1.000000 0.000000 -0.000000
vn -0.623490 0.000000 0.781832
vn -0.623490 0.000000 0.781832
vn -0.623490 0.000000 0.781832
vn -0.623490 0.000000 0.781832
vn 0.222521 0.000000 0.974928
vn 0.222521 0.000000 0.974928
vn 0.222521 0.000000 0.974928
vn 0.222521 0.000000 0.974928
vn 0.900969 0.000000 0.433884
vn 0.900969 0.000000 0.433884
vn 0.900969 0.000000 0.433884
vn 0.900969 0.000000 0.433884
vn 0.900969 0.000000 -0.433884
vn 0.900969 0.000000 -0.433884
vn 0.900969 0.000000 -0.433884
vn 0.900969 0.000000 -0.433884
vn 0.173624 -0.139178 -0.974928
vn 0.173624 -0.139178 -0.974928
vn 0.173624 -0.139178 -0.974928
vn 0.173624 -0.139178 -0.974928
vn -0.486482 0.389966 -0.781832
vn -0.486482 0.389966 -0.781832
vn -0.486482 0.389966 -0.781832
vn -0.486482 0.389966 -0.781832
vn -0.780258 0.625458 0.000000
vn -0.780258 0.625458 0.000000
vn -0.780258 0.625458 0.000000
vn -0.780258 0.625458 0.000000
vn -0.486482 0.389966 0.781832
vn -0.486482 0.389966 0.781832
vn -0.486482 0.389966 0.781832
vn -0.486482 0.389966 0.781832
vn 0.173624 -0.139177 0.974928
vn 0.173624 -0.139177 0.974928
vn 0.173624 -0.139177 0.974928
vn 0.173624 -0.139177 0.974928
vn 0.702988 -0.563518 0.433884
vn 0.702988 -0.563518 0.433884
vn 0.702988 -0.563518 0.433884
vn 0.702988 -0.563518 0.433884
vn 0.702989 -0.563518 -0.433883
vn 0.702989 -0.563518 -0.433883
vn 0.702989 -0.563518 -0.433883
vn 0.702989 -0.563518 -0.433883
vn 0.173624 -0.139178 -0.974928
vn 0.173624 -0.139178 -0.974928
vn 0.173624 -0.139178 -0.974928
vn 0.173624 -0.139178 -0.974928
vn -0.486483 0.389966 -0.781832
vn -0.486483 0.389966 -0.781832
vn -0.486483 0.389966 -0.781832
vn -0.486483 0.389966 -0.781832
vn -0.780258 0.625458 -0.000001
vn -0.780258 0.625458 -0.000001
vn -0.780258 0.625458 -0.000001
vn -0.780258 0.625458 -0.000001
vn -0.486482 0.389966 0.781832
vn -0.486483 0.389966 0.781832
vn -0.486483 0.389966 0.781832
vn -0.486483 0.389966 0.781832
vn 0.173624 -0.139178 0.974928
vn 0.173624 -0.139178 0.974928
vn 0.173624 -0.139178 0.974928
vn 0.173624 -0.139178 0.974928
vn 0.702988 -0.563518 0.433884
vn 0.702988 -0.563518 0.433884
vn 0.702988 -0.563518 0.433884
vn 0.702988 -0.563518 0.433884
vn 0.702988 -0.563518 -0.433884
vn 0.702988 -0.563518 -0.433884
vn 0.702988 -0.563518 -0.433884
vn 0.702988 -0.563518 -0.433884
vn 0.136232 -0.199628 -0.970355
vn 0.135365 -0.200852 -0.970224
vn 0.159754 -0.166083 -0.973085
vn 0.159754 -0.166083 -0.973085
vn 0.635718 -0.648279 -0.419043
vn 0.635757 -0.648234 -0.419054
vn 0.669643 -0.607020 -0.427908
vn 0.669643 -0.607020 -0.427908
vn 0.657800 -0.608585 0.443761
vn 0.658296 -0.608137 0.443639
vn 0.676162 -0.591626 0.439071
vn 0.676162 -0.591626 0.439071
vn 0.184715 -0.111641 0.976431
vn 0.184356 -0.112209 0.976434
vn 0.173137 -0.129832 0.976303
vn 0.173137 -0.129832 0.976303
vn -0.428284 0.471958 0.770603
vn -0.428614 0.471530 0.770681
vn -0.459944 0.429480 0.777173
vn -0.459944 0.429480 0.777173
vn -0.714799 0.699200 -0.013488
vn -0.713832 0.700182 -0.013711
vn -0.746652 0.665189 -0.005939
vn -0.746652 0.665189 -0.005939
vn -0.466232 0.402823 -0.787630
vn -0.465946 0.402943 -0.787738
vn -0.471457 0.400629 -0.785637
vn -0.471457 0.400629 -0.785637
vn 0.220083 -0.038159 -0.974735
vn 0.220083 -0.038159 -0.974735
vn 0.199854 -0.104188 -0.974271
vn 0.196473 -0.114883 -0.973756
vn 0.896114 -0.088760 -0.434857
vn 0.896114 -0.088760 -0.434857
vn 0.859334 -0.270851 -0.433804
vn 0.857142 -0.278288 -0.433432
vn 0.903222 -0.071005 0.423259
vn 0.903222 -0.071005 0.423259
vn 0.872056 -0.237822 0.427737
vn 0.875447 -0.224837 0.427832
vn 0.229071 0.000072 0.973410
vn 0.229071 0.000072 0.973410
vn 0.232512 -0.013592 0.972499
vn 0.232003 -0.011557 0.972647
vn -0.622127 0.061738 0.780479
vn -0.622127 0.061738 0.780479
vn -0.586297 0.211333 0.782045
vn -0.590627 0.196163 0.782739
vn -0.997254 0.073671 0.007528
vn -0.997254 0.073671 0.007528
vn -0.966827 0.255413 0.003108
vn -0.964431 0.264319 0.002883
vn -0.631487 0.034572 -0.774615
vn -0.631487 0.034572 -0.774615
vn -0.617542 0.118630 -0.777540
vn -0.614519 0.133849 -0.777464
vn 0.136680 -0.221322 -0.965575
vn 0.136755 -0.221272 -0.965576
vn 0.696306 -0.585826 -0.414687
vn 0.696610 -0.585458 -0.414696
vn 0.732677 -0.521022 0.437859
vn 0.731742 -0.522199 0.438020
vn 0.216036 -0.061967 0.974417
vn 0.215887 -0.062205 0.974435
vn -0.444269 0.473790 0.760361
vn -0.444335 0.473730 0.760359
vn -0.754639 0.655962 -0.015306
vn -0.753190 0.657621 -0.015456
vn -0.517869 0.340559 -0.784749
vn -0.516682 0.341951 -0.784926
vn -0.381575 0.513926 -0.768297
vn -0.377936 0.517478 -0.767712
vn -0.445245 0.447815 -0.775383
vn -0.445245 0.447815 -0.775383
vn -0.643880 0.764923 0.017643
vn -0.645182 0.763830 0.017459
vn -0.722242 0.691615 0.005933
vn -0.722242 0.691615 0.005933
vn -0.426165 0.440535 0.790135
vn -0.428224 0.439046 0.789850
vn -0.457851 0.417082 0.785121
vn -0.457851 0.417082 0.785122
vn 0.115334 -0.217871 0.969139
vn 0.117688 -0.215277 0.969436
vn 0.153411 -0.175392 0.972473
vn 0.153411 -0.175392 0.972473
vn 0.571283 -0.707521 0.415991
vn 0.571916 -0.706950 0.416094
vn 0.645839 -0.633408 0.426246
vn 0.645839 -0.633408 0.426246
vn 0.597573 -0.665851 -0.446710
vn 0.593862 -0.668854 -0.447172
vn 0.654412 -0.616328 -0.438047
vn 0.654412 -0.616328 -0.438047
vn 0.172512 -0.124960 -0.977049
vn 0.172877 -0.124040 -0.977102
vn 0.168711 -0.134511 -0.976444
vn 0.168711 -0.134511 -0.976444
vn -0.622773 0.096707 -0.776403
vn -0.622773 0.096707 -0.776403
vn -0.622773 0.096707 -0.776403
vn -0.622773 0.096707 -0.776403
vn -0.991581 0.129239 -0.007979
vn -0.991581 0.129239 -0.007979
vn -0.991581 0.129239 -0.007979
vn -0.991581 0.129239 -0.007979
vn -0.633503 0.060983 0.771334
vn -0.633503 0.060983 0.771333
vn -0.633503 0.060983 0.771334
vn -0.633503 0.060983 0.771333
vn 0.222441 -0.045197 0.973898
vn 0.222441 -0.045197 0.973898
vn 0.222441 -0.045197 0.973898
vn 0.222441 -0.045197 0.973898
vn 0.896814 -0.098068 0.431402
vn 0.896814 -0.098068 0.431402
vn 0.896814 -0.098068 0.431402
vn 0.896814 -0.098068 0.431402
vn 0.904483 -0.083583 -0.418240
vn 0.904483 -0.083583 -0.418240
vn 0.904483 -0.083583 -0.418240
vn 0.904483 -0.083583 -0.418240
vn 0.230647 -0.005231 -0.973024
vn 0.230647 -0.005231 -0.973024
vn 0.230647 -0.005231 -0.973024
vn 0.230647 -0.005231 -0.973024
vn -0.300636 0.587731 -0.751126
vn -0.300636 0.587731 -0.751126
vn -0.549655 0.834845 0.030206
vn -0.549655 0.834846 0.030206
vn -0.391652 0.464766 0.794104
vn -0.391652 0.464766 0.794104
vn 0.072720 -0.264089 0.961753
vn 0.072720 -0.264089 0.961753
vn 0.474687 -0.785114 0.397829
vn 0.474687 -0.785114 0.397829
vn 0.520025 -0.723486 -0.454029
vn 0.520025 -0.723486 -0.454029
vn 0.177441 -0.112488 -0.977682
vn 0.177441 -0.112488 -0.977682
vn 0.000000 -1.000000 -0.000000
vn 0.000000 -1.000000 -0.000000
vn 0.000000 -1.000000 -0.000000
vn 0.000000 -1.000000 -0.000000
vn 0.000000 1.000000 -0.000000
vn 0.000000 1.000000 -0.000000
vn 0.000000 1.000000 -0.000000
vn 0.000000 1.000000 -0.000000
vn 0.000000 -1.000000 -0.000000
vn 0.000000 -1.000000 -0.000000
vn 0.000000 -1.000000 -0.000000
vn 0.000000 -1.000000 -0.000000
vn 0.000000 1.000000 0.000000
vn 0.000000 1.000000 0.000000
vn 0.000000 1.000000 0.000000
vn 0.000000 1.000000 0.000000
vn 0.000000 -1.000000 0.000000
vn 0.000000 -1.000000 0.000000
vn 0.000000 -1.000000 0.000000
vn 0.000000 -1.000000 0.000000
vn 0.000000 1.000000 0.000000
vn 0.000000 1.000000 0.000000
vn 0.000000 1.000000 0.000000
vn 0.000000 1.000000 0.000000
vn 0.000000 -1.000000 0.000000
vn 0.000000 -1.000000 0.000000
vn 0.000000 -1.000000 0.000000
vn 0.000000 -1.000000 0.000000
vn 0.000000 1.000000 0.000000
vn 0.000000 1.000000 0.000000
vn 0.000000 1.000000 0.000000
vn 0.000000 1.000000 0.000000
vn 0.000000 -1.000000 -0.000000
vn 0.000000 -1.000000 -0.000000
vn 0.000000 -1.000000 -0.000000
vn 0.000000 -1.000000 -0.000000
vn 0.000000 1.000000 -0.000000
vn 0.000000 1.000000 -0.000000
vn 0.000000 1.000000 -0.000000
vn 0.000000 1.000000 -0.000000
vn 0.000000 -1.000000 0.000000
vn 0.000000 -1.000000 0.000000
vn 0.000000 -1.000000 0.000000
vn 0.000000 -1.000000 0.000000
vn 0.000000 1.000000 0.000000
vn 0.000000 1.000000 0.000000
vn 0.000000 1.000000 0.000000
vn 0.000000 1.000000 0.000000
vn 0.000000 -1.000000 0.000000
vn 0.000000 -1.000000 0.000000
vn 0.000000 -1.000000 0.000000
vn 0.000000 -1.000000 0.000000
vn 0.000000 1.000000 0.000000
vn 0.000000 1.000000 0.000000
vn 0.000000 1.000000 0.000000
vn 0.000000 1.000000 0.000000
vn -0.780564 0.624962 0.011935
vn -0.780564 0.624962 0.011935
vn -0.780564 0.624962 0.011935
vn -0.780564 0.624962 0.011935
vn -0.526127 0.338139 0.780290
vn -0.526127 0.338139 0.780290
vn -0.526127 0.338139 0.780290
vn -0.526127 0.338139 0.780290
vn 0.117667 -0.251004 0.960808
vn 0.117667 -0.251004 0.960808
vn 0.117667 -0.251004 0.960808
vn 0.117667 -0.251004 0.960808
vn 0.605225 -0.691234 0.394840
vn 0.605225 -0.691234 0.394840
vn 0.605225 -0.691234 0.394840
vn 0.605225 -0.691234 0.394840
vn 0.668789 -0.600188 -0.438742
vn 0.668789 -0.600188 -0.438742
vn 0.668789 -0.600188 -0.438742
vn 0.668789 -0.600188 -0.438742
vn 0.223658 -0.060920 -0.972762
vn 0.223658 -0.060920 -0.972762
vn 0.223658 -0.060920 -0.972762
vn 0.223658 -0.060920 -0.972762
vn -0.454426 0.468545 -0.757604
vn -0.454426 0.468545 -0.757603
vn -0.454426 0.468545 -0.757604
vn -0.454426 0.468545 -0.757603
vn 0.682605 0.729828 0.037431
vn 0.682605 0.729828 0.037431
vn 0.682605 0.729828 0.037431
vn 0.682605 0.729828 0.037431
vn 0.726588 0.680080 0.097775
vn 0.726588 0.680080 0.097775
vn 0.726588 0.680080 0.097775
vn 0.726588 0.680080 0.097775
vn 0.708705 0.694669 0.123180
vn 0.708705 0.694669 0.123180
vn 0.708705 0.694669 0.123180
vn 0.708705 0.694668 0.123180
vn 0.718075 0.691031 0.082733
vn 0.718075 0.691031 0.082733
vn 0.718075 0.691031 0.082733
vn 0.718075 0.691031 0.082733
vn 0.733514 0.670618 0.110584
vn 0.733514 0.670618 0.110584
vn 0.733514 0.670618 0.110584
vn 0.733514 0.670618 0.110584
vn 0.676208 0.718938 0.160845
vn 0.676208 0.718938 0.160845
vn 0.676208 0.718938 0.160845
vn 0.676208 0.718938 0.160845
vn 0.627219 0.772882 0.096174
vn 0.627219 0.772882 0.096174
vn 0.627219 0.772882 0.096174
vn 0.627219 0.772882 0.096174
vn -0.469834 -0.881369 0.049441
vn -0.469834 -0.881369 0.049441
vn -0.469834 -0.881369 0.049441
vn -0.469834 -0.881369 0.049441
vn -0.628761 -0.775590 -0.055859
vn -0.628761 -0.775590 -0.055859
vn -0.628761 -0.775590 -0.055859
vn -0.628761 -0.775590 -0.055859
vn -0.432324 -0.879037 -0.200973
vn -0.432324 -0.879037 -0.200973
vn -0.432324 -0.879037 -0.200973
vn -0.432324 -0.879037 -0.200973
vn -0.495357 -0.840754 -0.218526
vn -0.495357 -0.840755 -0.218526
vn -0.495357 -0.840754 -0.218526
vn -0.495357 -0.840754 -0.218526
vn -0.412770 -0.910751 -0.012413
vn -0.412770 -0.910751 -0.012413
vn -0.412770 -0.910751 -0.012413
vn -0.412770 -0.910751 -0.012413
vn -0.646860 -0.760201 0.060555
vn -0.646860 -0.760201 0.060555
vn -0.646860 -0.760201 0.060555
vn -0.646860 -0.760201 0.060555
vn -0.669026 -0.715572 -0.200899
vn -0.669026 -0.715572 -0.200899
vn -0.669026 -0.715572 -0.200899
vn -0.669026 -0.715572 -0.200899
s off
g pCylinder5
usemtl initialShadingGroup
f 85/13/1 86/7/2 87/8/3 88/14/4
f 86/7/5 89/1/6 90/4/7 87/8/8
f 89/1/9 91/2/10 92/3/11 90/4/12
f 91/2/13 93/5/14 94/6/15 92/3/16
f 93/5/17 95/9/18 96/168/19 94/6/20
f 95/167/21 97/10/22 98/11/23 96/12/24
f 97/10/25 85/13/26 88/14/27 98/11/28
f 15/79/29 16/119/30 23/120/31 22/82/32
f 16/119/33 17/122/34 24/123/35 23/120/36
f 17/122/37 18/127/38 25/130/39 24/123/40
f 18/127/41 19/128/42 26/129/43 25/130/44
f 19/128/45 20/78/46 27/183/47 26/129/48
f 20/182/49 21/77/50 28/80/51 27/81/52
f 21/77/53 15/79/54 22/82/55 28/80/56
f 29/31/57 30/135/58 37/136/59 36/28/60
f 30/135/61 31/49/62 38/47/63 37/136/64
f 31/49/65 32/50/66 39/48/67 38/47/68
f 32/50/69 33/138/70 40/139/71 39/48/72
f 33/138/73 34/140/74 41/141/75 40/139/76
f 34/32/77 35/30/78 42/27/79 41/29/80
f 35/30/81 29/31/82 36/28/83 42/27/84
s 1
f 57/137/85 58/25/86 36/28/87 37/136/88
s 2
f 58/25/89 59/24/90 42/27/91 36/28/92
s 3
f 59/24/93 60/26/94 41/29/95 42/27/96
s 4
f 60/143/97 61/142/98 40/139/99 41/141/100
s 5
f 61/142/101 62/45/102 39/48/103 40/139/104
s 6
f 62/45/105 63/44/106 38/47/107 39/48/108
s 7
f 63/44/109 57/137/110 37/136/111 38/47/112
s 1
f 2/190/113 1/185/114 44/18/115 43/38/116
s 2
f 1/185/117 7/184/118 45/17/119 44/18/120
s 3
f 7/184/121 6/186/122 46/20/123 45/17/124
s 4
f 6/146/125 5/187/126 47/42/127 46/145/128
s 5
f 5/187/129 4/188/130 48/36/131 47/42/132
s 6
f 4/188/133 3/189/134 49/35/135 48/36/136
s 7
f 3/189/137 2/190/138 43/38/139 49/35/140
s 1
f 43/38/116 44/18/115 51/22/141 50/43/142
s 2
f 44/18/120 45/17/119 52/21/143 51/22/144
s 3
f 45/17/124 46/20/123 53/23/145 52/21/146
s 4
f 46/145/128 47/42/127 54/46/147 53/144/148
s 5
f 47/42/132 48/36/131 55/40/149 54/46/150
s 6
f 48/36/136 49/35/135 56/39/151 55/40/152
s 7
f 49/35/140 43/38/139 50/43/153 56/39/154
s 1
f 50/43/142 51/22/141 58/25/86 57/137/85
s 2
f 51/22/144 52/21/143 59/24/90 58/25/89
s 3
f 52/21/146 53/23/145 60/26/94 59/24/93
s 4
f 53/144/148 54/46/147 61/142/98 60/143/97
s 5
f 54/46/150 55/40/149 62/45/102 61/142/101
s 6
f 55/40/152 56/39/151 63/44/106 62/45/105
s 7
f 56/39/154 50/43/153 57/137/110 63/44/109
s 15
f 78/121/155 79/125/156 17/122/157 16/119/158
s 16
f 79/125/159 80/131/160 18/127/161 17/122/162
s 17
f 80/131/163 81/132/164 19/128/165 18/127/166
s 18
f 81/132/167 82/181/168 20/78/169 19/128/170
s 19
f 82/74/171 83/73/172 21/77/173 20/182/174
s 20
f 83/73/175 84/76/176 15/79/177 21/77/178
s 21
f 84/76/179 78/121/180 16/119/181 15/79/182
s off
f 9/59/183 10/51/184 65/175/185 64/60/186
f 10/51/187 11/52/188 66/53/189 65/175/190
f 11/52/191 12/55/192 67/56/193 66/53/194
f 12/55/195 13/147/196 68/148/197 67/56/198
f 13/65/199 14/66/200 69/67/201 68/68/202
f 14/66/203 8/69/204 70/70/205 69/67/206
f 8/69/207 9/59/208 64/60/209 70/70/210
s 15
f 71/124/211 72/126/212 79/125/156 78/121/155
s 16
f 72/126/213 73/133/214 80/131/160 79/125/159
s 17
f 73/133/215 74/134/216 81/132/164 80/131/163
s 18
f 74/134/217 75/71/218 82/181/168 81/132/167
s 19
f 75/178/219 76/72/220 83/73/172 82/74/171
s 20
f 76/72/221 77/75/222 84/76/176 83/73/175
s 21
f 77/75/223 71/124/224 78/121/180 84/76/179
s off
f 1/15/225 2/37/226 86/83/227 85/84/228
f 9/90/229 8/91/230 88/92/231 87/93/232
f 2/37/233 3/34/234 89/85/235 86/83/236
f 10/96/237 9/90/238 87/93/239 90/97/240
f 3/34/241 4/33/242 91/87/243 89/85/244
f 11/100/245 10/96/246 90/97/247 92/101/248
f 4/33/249 5/41/250 93/89/251 91/87/252
f 12/102/253 11/100/254 92/101/255 94/103/256
f 5/41/257 6/191/258 95/192/259 93/89/260
f 13/98/261 12/102/262 94/103/263 96/99/264
f 6/19/265 7/16/266 97/86/267 95/88/268
f 14/94/269 13/169/270 96/170/271 98/95/272
f 7/16/273 1/15/274 85/84/275 97/86/276
f 8/91/277 14/94/278 98/95/279 88/92/280
f 100/58/281 103/174/282 104/61/283 101/62/284
f 103/174/285 105/63/286 106/64/287 104/61/288
f 105/63/289 107/149/290 108/150/291 106/64/292
f 107/173/293 109/171/294 110/113/295 108/114/296
f 109/171/297 111/172/298 112/117/299 110/113/300
f 111/172/301 99/151/302 102/152/303 112/117/304
f 99/151/305 100/58/306 101/62/307 102/152/308
f 72/153/309 71/154/310 102/155/311 101/156/312
f 71/154/313 77/157/314 112/158/315 102/155/316
f 77/157/317 76/161/318 110/162/319 112/158/320
f 76/161/321 75/179/322 108/166/323 110/162/324
f 75/165/325 74/163/326 106/164/327 108/180/328
f 74/163/329 73/159/330 104/160/331 106/164/332
f 73/159/333 72/153/334 101/156/335 104/160/336
f 66/104/337 67/105/338 105/106/339 103/57/340
f 65/54/341 66/104/342 103/57/343 100/118/344
f 67/105/345 68/176/346 107/108/347 105/106/348
f 64/115/349 65/54/350 100/118/351 99/116/352
f 70/111/353 64/115/354 99/116/355 111/112/356
f 69/109/357 70/111/358 111/112/359 109/110/360
f 68/107/361 69/109/362 109/110/363 107/177/364
