# This file uses centimeters as units for non-parametric coordinates.

mtllib testarino.mtl
g default
v 5.805242 0.122512 14.885872
v 6.175537 -0.257248 -14.707194
v -6.175537 -0.257248 -14.707194
v -5.805242 0.122512 14.885872
v 6.189000 0.367548 3.618318
v -6.189000 0.367548 3.618318
v 6.132778 1.935962 9.839796
v -6.132778 1.935962 9.839796
v 6.132778 0.613097 12.492085
v -6.132778 0.613097 12.492085
v 2.106084 0.613097 12.492085
v 2.119829 0.122512 14.885872
v 6.132778 0.122799 13.590149
v 2.106084 0.122799 13.590149
v -2.106084 0.613097 12.492085
v -2.119829 0.122512 14.885872
v -2.106084 0.122799 13.590149
v -6.132778 0.122799 13.590149
v 2.106084 1.935962 9.839796
v 6.132778 0.670387 11.156928
v 2.106084 0.670387 11.156928
v -2.106084 1.935962 9.839796
v -2.106084 0.670387 11.156928
v -6.132778 0.670387 11.156928
v 6.132778 1.936694 7.659410
v -6.132778 1.936694 7.659410
v 2.106084 1.936694 7.659410
v 6.132778 1.936274 8.911141
v 2.106084 1.936274 8.911141
v -2.106084 1.936694 7.659410
v -2.106084 1.936274 8.911141
v -6.132778 1.936274 8.911141
v 2.125697 1.961293 3.618318
v 6.132778 1.936880 7.106529
v 2.106084 1.936880 7.106529
v 6.132778 0.344092 4.256958
v 2.106084 1.937836 4.256958
v -6.132778 1.936880 7.106529
v -2.106084 1.936880 7.106529
v -2.125697 1.961293 3.618318
v -2.106084 1.937836 4.256958
v -6.132778 0.344092 4.256958
v 6.236307 0.376182 -5.739213
v -6.236307 0.376182 -5.739213
v 6.236307 0.376182 -0.049212
v -6.236307 0.376182 -0.049212
v 2.142201 0.376182 -0.049212
v 6.236306 0.376182 2.370788
v 2.142200 0.376182 2.370788
v -2.142201 0.376182 -0.049212
v -2.142200 0.376182 2.370788
v -6.236306 0.376182 2.370788
v 2.142200 0.376182 -5.739213
v 6.236307 0.376182 -3.099212
v 2.142200 0.376182 -3.099212
v -2.142200 0.376182 -5.739213
v -2.142200 0.376182 -3.099212
v -6.236307 0.376182 -3.099212
v 6.199052 0.564817 -7.652722
v -6.199052 0.564817 -7.652722
v 2.129204 0.387903 -7.936882
v 6.199052 0.379774 -6.590004
v 2.129204 0.379774 -6.590004
v -2.129204 0.387903 -7.936882
v -2.129204 0.379774 -6.590004
v -6.199052 0.379774 -6.590004
v 2.130071 -0.257248 -14.828438
v 6.199052 1.572325 -8.978086
v 2.129204 1.395411 -9.262246
v 6.199052 2.171937 -10.978118
v 2.129204 1.995022 -11.262279
v -6.199052 1.572325 -8.978086
v -2.129204 1.395411 -9.262246
v -2.130071 -0.257248 -14.828438
v -2.129204 1.995022 -11.262279
v -6.199052 2.171937 -10.978118
vt 0.126353 0.001742
vt 0.127300 0.133204
vt 0.000000 0.142995
vt 0.000697 0.004938
vt 0.258565 0.000000
vt 0.260838 0.131705
vt 0.128197 0.198346
vt 0.000930 0.207747
vt 0.388327 0.138429
vt 0.384268 0.000289
vt 0.261475 0.196891
vt 0.129415 0.250211
vt 0.002794 0.259605
vt 0.388954 0.203258
vt 0.261472 0.248670
vt 0.129641 0.292088
vt 0.002896 0.293259
vt 0.388300 0.255210
vt 0.262213 0.290596
vt 0.129445 0.318556
vt 0.001839 0.319826
vt 0.388987 0.288915
vt 0.263011 0.317050
vt 0.130099 0.400609
vt 0.002402 0.402243
vt 0.390668 0.315503
vt 0.264163 0.399181
vt 0.130944 0.495350
vt 0.002809 0.497683
vt 0.392042 0.398109
vt 0.265413 0.493898
vt 0.131456 0.570375
vt 0.003381 0.573655
vt 0.393449 0.493779
vt 0.266360 0.568881
vt 0.136040 0.631755
vt 0.004942 0.612982
vt 0.394325 0.570081
vt 0.262829 0.631082
vt 0.135219 0.651267
vt 0.003319 0.633505
vt 0.393434 0.609637
vt 0.263947 0.650662
vt 0.134827 0.739230
vt 0.009455 0.737121
vt 0.395440 0.630234
vt 0.265548 0.738257
vt 0.134847 0.756311
vt 0.009382 0.754595
vt 0.391012 0.734321
vt 0.265783 0.755349
vt 0.134927 0.795050
vt 0.009431 0.794009
vt 0.391288 0.751837
vt 0.266230 0.794123
vt 0.135066 0.823843
vt 0.009473 0.823179
vt 0.391757 0.791347
vt 0.266487 0.822919
vt 0.135337 0.880559
vt 0.009756 0.880360
vt 0.392051 0.820566
vt 0.266930 0.879675
vt 0.135575 0.922114
vt 0.009926 0.922112
vt 0.392503 0.877833
vt 0.267221 0.921236
vt 0.135762 0.959536
vt 0.010085 0.959622
vt 0.392821 0.919615
vt 0.267488 0.958670
vt 0.135516 0.999888
vt 0.020417 1.000000
vt 0.393129 0.957145
vt 0.268224 0.999008
vt 0.383295 0.997661
vn 0.004236 -0.843583 0.536982
vn -0.007016 -0.954765 0.297279
vn -0.017116 -0.960869 0.276475
vn 0.008633 -0.841572 0.540075
vn 0.105163 -0.845290 0.523857
vn 0.112569 -0.988484 0.101134
vn 0.227858 -0.953268 0.198394
vn 0.233741 -0.901071 0.365290
vn 0.000000 -0.871139 -0.491037
vn 0.000000 -0.894869 -0.446328
vn 0.000000 -0.894869 -0.446328
vn 0.000000 -0.871139 -0.491037
vn 0.000000 -0.975600 -0.219556
vn 0.000000 -0.979233 -0.202739
vn 0.000000 -0.974796 -0.223099
vn 0.000000 -0.975600 -0.219556
vn 0.000000 -0.974796 -0.223099
vn 0.000000 -0.979233 -0.202739
vn 0.000000 -0.975600 -0.219556
vn 0.000000 -0.975600 -0.219556
vn 0.000000 -1.000000 -0.000222
vn 0.000000 -1.000000 -0.000222
vn 0.000000 -1.000000 -0.000222
vn 0.000000 -1.000000 -0.000222
vn 0.000000 -0.894869 -0.446328
vn 0.000000 -0.894869 -0.446328
vn 0.000000 -0.871139 -0.491037
vn 0.000000 -0.871139 -0.491037
vn 0.000000 -1.000000 -0.000335
vn 0.000000 -1.000000 -0.000336
vn 0.000000 -1.000000 -0.000336
vn 0.000000 -1.000000 -0.000336
vn 0.000000 -1.000000 -0.000336
vn 0.000000 -1.000000 -0.000336
vn 0.000000 -1.000000 -0.000335
vn 0.000000 -1.000000 -0.000336
vn -0.227858 -0.953268 0.198394
vn -0.112569 -0.988484 0.101134
vn -0.105163 -0.845290 0.523857
vn -0.233741 -0.901071 0.365290
vn -0.080223 -0.990348 0.113029
vn -0.159324 -0.961288 0.224816
vn 0.159324 -0.961288 0.224816
vn 0.080223 -0.990348 0.113029
vn 0.000000 -1.000000 -0.001026
vn 0.000000 -1.000000 0.000000
vn 0.000000 -1.000000 0.000000
vn 0.000000 -1.000000 -0.001005
vn 0.000000 -1.000000 0.000000
vn 0.030966 -0.950918 0.307890
vn 0.063714 -0.976807 0.204422
vn 0.000000 -1.000000 0.000000
vn -0.063714 -0.976807 0.204422
vn -0.030966 -0.950918 0.307890
vn 0.000000 -1.000000 0.000000
vn 0.000000 -1.000000 0.000000
vn 0.000000 -1.000000 0.000000
vn 0.000000 -1.000000 0.000000
vn 0.000000 -1.000000 -0.001026
vn 0.000000 -1.000000 -0.001005
vn -0.027670 -0.924332 -0.380584
vn -0.006776 -0.999645 -0.025782
vn -0.014180 -0.998741 -0.048111
vn -0.056229 -0.918311 -0.391846
vn 0.014180 -0.998741 -0.048111
vn 0.006776 -0.999645 -0.025782
vn 0.027670 -0.924332 -0.380584
vn 0.056229 -0.918311 -0.391846
vn 0.017116 -0.960869 0.276475
vn 0.007016 -0.954765 0.297279
vn -0.004236 -0.843583 0.536982
vn -0.008633 -0.841572 0.540075
vn 0.034043 -0.900846 -0.432803
vn 0.069561 -0.896089 -0.438391
vn -0.069561 -0.896089 -0.438391
vn -0.034043 -0.900846 -0.432803
s 1
usemtl UnderMesh2
f 74/1/1 75/2/2 76/3/3 3/4/4
f 40/36/5 41/40/6 42/41/7 6/37/8
f 22/56/9 23/60/10 24/61/11 8/57/12
f 15/64/13 17/68/14 18/69/15 10/65/16
f 13/74/17 14/71/18 11/67/19 9/70/20
f 1/76/21 12/75/22 14/71/18 13/74/17
f 11/67/19 14/71/18 17/68/14 15/64/13
f 17/68/14 14/71/18 12/75/22 16/72/23
f 18/69/15 17/68/14 16/72/23 4/73/24
f 20/66/25 21/63/26 19/59/27 7/62/28
f 9/70/20 11/67/19 21/63/26 20/66/25
f 19/59/27 21/63/26 23/60/10 22/56/9
f 23/60/10 21/63/26 11/67/19 15/64/13
f 24/61/11 23/60/10 15/64/13 10/65/16
f 30/48/29 31/52/30 32/53/31 26/49/32
f 28/58/33 29/55/34 27/51/35 25/54/36
f 7/62/28 19/59/27 29/55/34 28/58/33
f 27/51/35 29/55/34 31/52/30 30/48/29
f 31/52/30 29/55/34 19/59/27 22/56/9
f 32/53/31 31/52/30 22/56/9 8/57/12
f 36/46/37 37/43/38 33/39/39 5/42/40
f 25/54/36 27/51/35 35/47/41 34/50/42
f 34/50/42 35/47/41 37/43/38 36/46/37
f 38/45/43 39/44/44 30/48/29 26/49/32
f 30/48/29 39/44/44 35/47/41 27/51/35
f 33/39/39 37/43/38 41/40/6 40/36/5
f 41/40/6 37/43/38 35/47/41 39/44/44
f 42/41/7 41/40/6 39/44/44 38/45/43
f 56/20/45 57/24/46 58/25/47 44/21/48
f 50/28/49 51/32/50 52/33/51 46/29/52
f 48/38/53 49/35/54 47/31/55 45/34/56
f 5/42/40 33/39/39 49/35/54 48/38/53
f 47/31/55 49/35/54 51/32/50 50/28/49
f 51/32/50 49/35/54 33/39/39 40/36/5
f 52/33/51 51/32/50 40/36/5 6/37/8
f 54/30/57 55/27/58 53/23/59 43/26/60
f 45/34/56 47/31/55 55/27/58 54/30/57
f 53/23/59 55/27/58 57/24/46 56/20/45
f 57/24/46 55/27/58 47/31/55 50/28/49
f 58/25/47 57/24/46 50/28/49 46/29/52
f 64/12/61 65/16/62 66/17/63 60/13/64
f 62/22/65 63/19/66 61/15/67 59/18/68
f 43/26/60 53/23/59 63/19/66 62/22/65
f 61/15/67 63/19/66 65/16/62 64/12/61
f 65/16/62 63/19/66 53/23/59 56/20/45
f 66/17/63 65/16/62 56/20/45 44/21/48
f 70/9/69 71/6/70 67/5/71 2/10/72
f 59/18/68 61/15/67 69/11/73 68/14/74
f 68/14/74 69/11/73 71/6/70 70/9/69
f 72/8/75 73/7/76 64/12/61 60/13/64
f 64/12/61 73/7/76 69/11/73 61/15/67
f 67/5/71 71/6/70 75/2/2 74/1/1
f 75/2/2 71/6/70 69/11/73 73/7/76
f 76/3/3 75/2/2 73/7/76 72/8/75
